<svg version="1.1" id="Layer_1" xmlns="http://www.w3.org/2000/svg" x="0" y="0" viewBox="0 0 512 512" xml:space="preserve"><style>.st2{fill:#c8b100}.st2,.st3,.st4,.st5{stroke:#000;stroke-width:1.0667;stroke-miterlimit:10}.st3{fill:#0076bc}.st4{fill:#c00}.st5{fill:#ccc}</style><path d="M0 0h512v512H0V0z" fill-rule="evenodd" clip-rule="evenodd" fill="#c00"/><path d="M0 128h512v256H0V128z" fill-rule="evenodd" clip-rule="evenodd" fill="#ff3"/><path class="st2" d="M140.7 192.3h-40.2v10.6h5c-1.1 0-1.8.5-1.8 1.2 0 .6.7 1.2 1.7 1.2-.2 0-.3 0-.5-.1 1.1.3 1.7 1.3 1.7 2.3 0 1-.6 2-1.7 2.3.2-.1.4-.1.6-.1-1 0-1.7.6-1.7 1.4 0 .7.9 1.4 1.8 1.4h30.1c1.1 0 1.8-.6 1.8-1.4 0-.5-.4-1.1-1.1-1.3-1.1-.3-1.8-1.3-1.8-2.3 0-1.1.7-2 1.8-2.5.6-.2 1.1-.6 1.1-1.1 0-.6-.9-1.2-1.8-1.2h5.1v-10.5l-.1.1zm-4.8 17.5c.2 0 .2 0 0 0zm-31.3-4.7h.2-.2z"/><path class="st3" d="M148.6 380.3c-2.8 0-5.2-.5-7-1.6-1.8-1-4.3-1.5-6.9-1.5-2.8 0-5.2.5-7 1.5-1.8 1-4.4 1.5-7 1.5-2.8 0-5.2-.6-7-1.6-1.8-.9-4.2-1.4-6.8-1.4-2.8 0-5.1.5-6.9 1.5-1.8 1-4.4 1.6-7.1 1.6v4.4c2.8 0 5.3-.6 7.1-1.6 1.8-1 4.3-1.5 6.9-1.5 2.7 0 5 .5 6.8 1.4 1.8 1 4.3 1.6 7 1.6s5.2-.6 7-1.6c1.8-1 4.4-1.5 7-1.5 2.7 0 5.1.5 6.9 1.5 1.8 1 4.3 1.6 7 1.6v-4.3zm0 8.7c-2.8 0-5.2-.6-7-1.6-1.8-1-4.3-1.5-6.9-1.5-2.8 0-5.2.5-7 1.5-1.8 1-4.4 1.6-7 1.6-2.8 0-5.2-.6-7-1.6-1.8-.9-4.2-1.4-6.8-1.4-2.8 0-5.1.5-6.9 1.5-1.8 1-4.4 1.6-7.1 1.6v4.4c2.8 0 5.3-.6 7.1-1.6 1.8-1 4.3-1.5 6.9-1.5 2.7 0 5 .5 6.8 1.4 1.8 1 4.3 1.6 7 1.6s5.2-.6 7-1.5c1.8-1 4.4-1.5 7-1.5 2.7 0 5.1.5 6.9 1.5 1.8 1 4.3 1.6 7 1.6V389z"/><path class="st2" d="M136.2 363.5c0-.4.1-.7.2-1.1-.2.1-.5.1-.7.1h-30.1c-.2 0-.5 0-.7-.1.1.3.2.7.2 1.1 0 2.7-2.2 4.7-5.1 4.7h.1v10.6h41.3v-10.6c-2.9.1-5.2-2-5.2-4.7z"/><path class="st2" d="M105.4 362.6h30.1c1.1 0 1.8-.6 1.8-1.4s-.9-1.4-1.8-1.4h-30.1c-1.1 0-1.8.6-1.8 1.4s.9 1.4 1.8 1.4z"/><path class="st4" d="M96.7 322.5c-4.1 2.3-6.8 4.8-6.4 6 .2 1.1 1.5 1.9 3.4 3.2 2.9 2 4.7 5.7 3.3 7.4 2.5-1.9 3.9-4.9 3.9-8.1.1-3.5-1.6-6.6-4.2-8.5"/><path class="st5" d="M105.9 358h29.3V214.3h-29.3V358z"/><path class="st4" d="M135.2 275.1c5.1.7 8.9 2 10.8 3.6l.2.3c1 1.8-3.5 5.9-11 10.2v-14.1z"/><path class="st4" d="M135.3 246.3c-5.2 0-11.1.3-17.3 1.4-19.5 3.2-34.3 11-33.2 17.4.1.5 6.7 15.4 6.7 15.4 0-.1 0-.3-.1-.4.7 3.3 6.2 5.5 14.3 6.1V272c-2.6 0-5-.3-7.3-.5 5.4-3 13.4-5.7 22.7-7.3 4.9-.9 9.7-1.3 14.1-1.3 12.5.4 23.4 2.3 29.8 5l-.1-17.7c-6.3-2.3-17.2-3.9-29.6-3.9zm10.8 32.4l.1.3c1.4 2.9-10.1 10.8-25.7 17.7-5.2 2.3-9.5 4.3-14.6 6.1-11.2 4.2-19.2 8.7-18.3 11.1l2.8 14.6c-.7-2 7.4-7.4 15.6-10.1 4.6-1.6 14.3-5.2 18.9-7.4 14.3-6.8 24.9-14.6 23.5-17.3-.2-.2-1.5-14.3-2.3-15z"/><path class="st2" d="M410 192.3h-40.2v10.6h5.1c-1.1 0-1.8.5-1.8 1.2 0 .4.4.9 1 1.1 1.1.3 1.8 1.3 1.8 2.5 0 1.1-.7 2-1.8 2.3-.6.2-1.1.7-1.1 1.3 0 .7.9 1.4 1.8 1.4h30.1c1.1 0 1.8-.6 1.8-1.4 0-.7-.7-1.4-1.7-1.4.2 0 .4 0 .6.1-1.1-.3-1.7-1.4-1.7-2.3 0-1.1.6-2 1.7-2.3h-.5c1 0 1.7-.5 1.7-1.2 0-.6-.9-1.2-1.8-1.2h5v-10.7zm-35.5 17.5c-.2 0 0 0 0 0zm31.1-4.7h.2-.2zm4.9 163.2c-2.8 0-5-2.1-5-4.7 0-.4.1-.7.2-1.1-.2.1-.5.1-.7.1h-30.1c-.3 0-.5 0-.7-.1.1.3.1.7.1 1.1 0 2.7-2.2 4.7-5 4.7h.1v10.6h41.3l-.2-10.6zm-35.6-5.7H405c1.1 0 1.8-.6 1.8-1.4s-.9-1.4-1.8-1.4h-30.1c-1.1 0-1.8.6-1.8 1.4-.1.7.7 1.4 1.8 1.4z"/><path class="st4" d="M413.7 322.5c4.1 2.3 6.8 4.8 6.4 6-.2 1.1-1.5 1.9-3.4 3.2-2.9 2-4.7 5.7-3.3 7.4-2.5-2-3.9-4.9-3.9-8.1 0-3.5 1.5-6.6 4.2-8.5"/><path class="st5" d="M375.2 358h29.3V214.3h-29.3V358z"/><path class="st4" d="M392.4 247.7c-6.1-1.1-12.1-1.4-17.3-1.4-12.5 0-23.3 1.6-29.9 4.1l-.1 17.7c6.4-2.7 17.3-4.6 29.8-5 4.3 0 9.1.4 14.1 1.3 9.2 1.5 17.3 4.2 22.7 7.3-2.2.2-4.7.5-7.3.5v14.1c8.1-.5 13.7-2.8 14.3-6.1 0 .1 0 .3-.1.4 0 0 6.6-14.8 6.7-15.4 1.4-6.5-13.4-14.3-32.9-17.5z"/><path class="st4" d="M404.5 302.7c-5.1-1.8-9.4-3.7-14.6-6.1-11.5-5.1-20.8-10.8-24.3-14.5 1.8 1.9 5.2 4.5 9.7 7V275c-5.1.7-8.9 2-10.8 3.6v.1s-.1.1-.1.2c-.9 2.1-1.9 14.6-1.9 14.6-1.4 2.7 9.1 10.5 23.5 17.3 4.6 2.2 14.3 5.8 18.9 7.4 8.2 2.9 16.3 8.2 15.6 10.1l2.7-14.6c.4-2.2-7.5-6.8-18.7-11zM254 113.2c11.9 0 22.6 1.8 29.7 4.5 3.9 1.8 9.3 3.1 15.1 3.9 4.5.6 8.6.7 12.4.4 4.9-.1 12.1 1.4 19.2 4.5 5.9 2.7 10.8 5.8 14.1 8.9l-2.8 2.6-.9 7.1-7.8 8.9-3.8 3.3-9.2 7.4-4.7.4-1.4 4.1-59.4-6.9-59.6 6.9-1.4-4.1-4.7-.4-9.2-7.4-3.8-3.3-7.8-8.9-.9-7.1-2.9-2.6c3.3-3.1 8.2-6.3 14.1-8.9 7.1-3.1 14.3-4.6 19.2-4.5 3.7.3 7.9.2 12.4-.4 5.9-.7 11.2-2.1 15.1-3.9 6.9-2.7 17.1-4.5 29-4.5"/><path class="st2" d="M255 191.7c-22.2 0-42-2.7-56.1-6.9-1.1-.3-1.6-1.3-1.5-2.2 0-1 .5-1.8 1.5-2.1 14.2-4.3 34-6.8 56.1-6.9 22.2 0 41.9 2.7 56.1 6.9 1 .3 1.5 1.2 1.5 2.1s-.5 1.9-1.5 2.2c-14.2 4.2-34 6.8-56.1 6.9"/><path class="st2" d="M254.8 173.4c-22.4 0-42.6 2.9-56.6 7.3 1.2-.5 1.1-2-.4-5.8-1.8-4.6-4.5-4.4-4.5-4.4 15.7-4.6 37.4-7.5 61.7-7.6 24.2 0 46.2 2.9 61.9 7.6 0 0-2.8-.2-4.5 4.4-1.5 3.7-1.6 5.2-.4 5.8-14.3-4.4-34.8-7.3-57.2-7.3"/><path class="st2" d="M254.9 163c-24.2 0-46.1 2.9-61.7 7.6-1.1.3-2.1-.1-2.5-1.1s.2-2.1 1.3-2.5c15.7-4.8 38.1-7.9 62.9-7.9s47.3 3.1 63 7.9c1.1.3 1.6 1.5 1.3 2.5-.3 1-1.5 1.4-2.5 1.1-15.6-4.7-37.5-7.6-61.8-7.6m-44.7-34l2.5 2 3.7-6.2c-4.1-2.5-6.8-6.8-6.8-11.7 0-.5 0-1.1.1-1.6.4-7.8 9.9-14.3 22.1-14.3 6.3 0 11.9 1.7 16 4.5.1-1.2.2-2.2.4-3.3-4.4-2.6-10.1-4.2-16.3-4.2-14 0-24.9 7.9-25.4 17.3-.1.5-.1 1.1-.1 1.6 0 5 2.2 9.5 5.9 12.6l-2.1 3.3zM196 103.4c-9.8 0-18.6 2.7-24.3 6.9.5-.3 1.1-.7 1.6-1.1-7.3 4.4-12.2 11-12.2 18.6 0 4.4 1.6 8.5 4.4 12.1l-.3.5 2.6 2 4.8-7.8c-3.1-2.6-5-6.3-5-10.6 0-2 .4-3.9 1.3-5.8 3.2-6.9 14.2-11.9 27.3-11.9 3.1 0 6.1.3 9.2.9.5-1 1.2-1.8 1.9-2.7-3.6-.7-7.4-1.1-11.3-1.1zM165.8 117c0 .1-.1.2-.1.2 0-.1 0-.1.1-.2zm2.6 18.1l-.2.3.2-.3c-2.7-3-4.3-6.8-4.3-11 0-.6 0-1.3.1-1.9-.1.6-.1 1.3-.1 1.9 0 4.2 1.6 8.1 4.3 11zm-3.3-16.4l-.3 1c.1-.4.2-.8.3-1zm-.6 1.7c-.1.5-.2 1.2-.3 1.7.1-.5.2-1 .3-1.7zm2.3-5.1c.2-.3.4-.7.7-1.1-.3.5-.5.8-.7 1.1zm-1 1.7c.2-.4.4-.9.7-1.3-.3.4-.5.8-.7 1.3zm1.8-3c.6-.9 1.5-1.7 2.3-2.5-.8.8-1.5 1.7-2.3 2.5zm2.7-2.6c.4-.3.7-.6 1.2-1-.5.3-.9.6-1.2 1z"/><path class="st2" d="M254.8 92.5c3.2 0 5.9 2.1 6.6 4.9.4 2.5.6 5.3.7 8.3v1c0 .3.1.7.1 1.1.1 6.3 1.1 11.9 2.3 15.4l-9.7 9.3-9.8-9.3c1.3-3.4 2.2-9.1 2.3-15.4 0-.3.1-.7.1-1.1v-1c0-3 .3-5.9.7-8.3.6-2.8 3.5-4.8 6.7-4.9"/><path class="st2" d="M299.3 129l-2.5 2-3.7-6.2c4.1-2.5 6.8-6.8 6.8-11.7 0-.5 0-1.1-.1-1.6-.4-7.8-9.9-14.3-22.1-14.3-6.3 0-11.9 1.7-16 4.5-.1-1.2-.2-2.2-.4-3.3 4.4-2.6 10.1-4.2 16.3-4.2 13.9 0 24.9 7.9 25.4 17.3 0 .5.1 1.1.1 1.6 0 5-2.2 9.5-5.9 12.6l2.1 3.3z"/><path class="st2" d="M299.1 129c4.8-3.5 7.7-8.3 7.7-13.7 0-6.1-4.1-11.5-10-15.1 3.7 3 6 6.9 6.4 11.2 0 .5.1 1.1.1 1.6 0 5-2.2 9.5-5.9 12.6l1.7 3.4zm-35-44.7v4.2h-18v-4.2h6.7v-12h-4.4v-4.1h4.4v-4.1h4.4v4.1h4.4v4.2h-4.4v11.8h6.9z"/><path class="st5" d="M255.5 404.9c-23.6 0-47-5.8-66.7-15.5-14.5-7.1-24.1-21.7-24.1-38.3v-59.9H346v60.2c0 16.5-9.6 31-24.1 38.3-19.7 9.4-42.7 15.2-66.4 15.2"/><path class="st2" d="M261.3 84.3v4.2h-13v-4.2h4.4v-12h-4.4v-4.1h4.4v-4.1h4.4v4.1h4.4v4.2H257v11.8h4.3z"/><path class="st2" d="M264.1 84.3h-1.4c-.4-3-2.7-5.3-5.7-6.2v-5.8h4.4v-4.1H257v-4.1h-4.4v4.1h-4.4v4.2h4.4v5.8c-3.1.7-5.3 3.2-5.8 6.2h-.8v4.2h1.5c1.3 2.7 4.1 4.5 7.4 4.5s6.1-1.8 7.4-4.5h2v-4.3h-.2z"/><path class="st5" d="M255.2 291.1h90.9V190.5h-90.9v100.6z"/><path class="st2" d="M255.3 351.3c0 23.8-20.2 43-45.2 43s-45.4-19.3-45.4-43v-60.2h90.7v60.2z"/><path class="st4" d="M164.6 291.1h90.6V190.5h-90.6v100.6zm181.5-.1v60.2c0 23.8-20.4 43-45.4 43-25.1 0-45.4-19.3-45.4-43V291h90.8z"/><path class="st3" d="M234.8 290.6c0-13.3 9.3-24.2 20.7-24.2s20.7 10.9 20.7 24.2-9.3 24.2-20.7 24.2-20.7-10.8-20.7-24.2"/><path d="M148.6 380.3c-2.8 0-5.2-.5-7-1.6-1.8-1-4.3-1.5-6.9-1.5-2.8 0-5.2.5-7 1.5-1.8 1-4.4 1.5-7 1.5-2.8 0-5.2-.6-7-1.6-1.8-.9-4.2-1.4-6.8-1.4-2.8 0-5.1.5-6.9 1.5-1.8 1-4.4 1.6-7.1 1.6v21.1c2.8 0 5.3-.6 7.1-1.6 1.8-1 4.3-1.5 6.9-1.5 2.7 0 5 .5 6.8 1.4 1.8 1 4.3 1.6 7 1.6s5.2-.6 7-1.6c1.8-1 4.4-1.5 7-1.5 2.7 0 5.1.5 6.9 1.5 1.8 1 4.3 1.6 7 1.6v-21zm269.4 0c-2.8 0-5.2-.5-7-1.6-1.8-1-4.3-1.5-6.9-1.5-2.8 0-5.2.5-7 1.5-1.8 1-4.4 1.5-7 1.5-2.8 0-5.2-.6-7-1.6-1.8-.9-4.2-1.4-6.8-1.4-2.8 0-5.1.5-6.9 1.5-1.8 1-4.4 1.6-7.1 1.6v21.1c2.8 0 5.3-.6 7.1-1.6 1.8-1 4.3-1.5 6.9-1.5 2.7 0 5 .5 6.8 1.4 1.8 1 4.3 1.6 7 1.6s5.2-.6 7-1.6c1.8-1 4.4-1.5 7-1.5 2.7 0 5.1.5 6.9 1.5s4.3 1.6 7 1.6v-21z" fill="#0076bc" stroke="#000" stroke-width="1.067"/><path class="st2" d="M348.3 127.8c0-7.6-4.8-14.2-12.1-18.6h-.1c-5.8-3.6-13.8-5.9-22.7-5.9-3.9 0-7.7.4-11.1 1.2.7.9 1.4 1.7 1.9 2.7 3-.5 6.1-.9 9.2-.9 13.1 0 24.1 5.1 27.3 11.9.9 1.7 1.3 3.7 1.3 5.8 0 4.2-1.9 8-5 10.6l4.8 7.8 2.6-2-.3-.5c2.6-3.6 4.2-7.7 4.2-12.1zm-5.6-12.6c-.2-.2-.3-.4-.5-.7 0 .2.3.5.5.7zm.7 1.4c-.1-.3-.3-.5-.4-.9.2.4.3.6.4.9zm-1.7-2.7c-.2-.3-.5-.5-.7-.9.2.4.5.6.7.9zm-4-3.7c-.4-.3-.9-.5-1.3-.9.4.2.8.6 1.3.9zm2.7 2.3c-.3-.3-.6-.6-1-.9.5.4.8.7 1 .9zm-1.4-1.2c-.3-.2-.5-.4-.9-.7.3.2.6.4.9.7zm2.1 23.8l.1.2-.1-.2z"/></svg>