<svg viewBox="0 0 640 480" xmlns="http://www.w3.org/2000/svg"><path clip-rule="evenodd" d="M.1 0H640v480H.1z" fill="#c00" fill-rule="evenodd"/><path clip-rule="evenodd" d="M1.4 120h640v240H1.4z" fill="#ff3" fill-rule="evenodd"/><g stroke="#000"><path d="M212.7 180.3H175v9.9h4.7c-1 0-1.7.5-1.7 1.1s.7 1.1 1.6 1.1c-.2 0-.3 0-.5-.1 1 .3 1.6 1.2 1.6 2.2 0 .9-.6 1.9-1.6 2.2.2-.1.4-.1.6-.1-.9 0-1.6.6-1.6 1.3s.8 1.3 1.7 1.3H208c1 0 1.7-.6 1.7-1.3 0-.5-.4-1-1-1.2-1-.3-1.7-1.2-1.7-2.2s.7-1.9 1.7-2.3c.6-.2 1-.6 1-1 0-.6-.8-1.1-1.7-1.1h4.8v-9.8zm-4.5 16.4c.1 0 .1 0 0 0zm-29.4-4.4h.2z" fill="#c8b100" stroke-miterlimit="10"/><path d="M220.1 356.5c-2.6 0-4.9-.5-6.6-1.5-1.7-.9-4-1.4-6.5-1.4-2.6 0-4.9.5-6.6 1.4s-4.1 1.4-6.6 1.4c-2.6 0-4.9-.6-6.6-1.5-1.7-.8-3.9-1.3-6.4-1.3-2.6 0-4.8.5-6.5 1.4s-4.1 1.5-6.7 1.5v4.1c2.6 0 5-.6 6.7-1.5s4-1.4 6.5-1.4 4.7.5 6.4 1.3c1.7.9 4 1.5 6.6 1.5s4.9-.6 6.6-1.5 4.1-1.4 6.6-1.4 4.8.5 6.5 1.4 4 1.5 6.6 1.5zm0 8.2c-2.6 0-4.9-.6-6.6-1.5s-4-1.4-6.5-1.4c-2.6 0-4.9.5-6.6 1.4s-4.1 1.5-6.6 1.5c-2.6 0-4.9-.6-6.6-1.5-1.7-.8-3.9-1.3-6.4-1.3-2.6 0-4.8.5-6.5 1.4s-4.1 1.5-6.7 1.5v4.1c2.6 0 5-.6 6.7-1.5s4-1.4 6.5-1.4 4.7.5 6.4 1.3c1.7.9 4 1.5 6.6 1.5s4.9-.6 6.6-1.4c1.7-.9 4.1-1.4 6.6-1.4s4.8.5 6.5 1.4 4 1.5 6.6 1.5z" fill="#0076bc" stroke-miterlimit="10"/><path d="M208.4 340.8c0-.4.1-.7.2-1-.2.1-.5.1-.7.1h-28.2c-.2 0-.5 0-.7-.1.1.3.2.7.2 1 0 2.5-2.1 4.4-4.8 4.4h.1v9.9h38.7v-9.9c-2.6.1-4.8-1.9-4.8-4.4z" fill="#c8b100" stroke-miterlimit="10"/><path d="M179.6 339.9h28.2c1 0 1.7-.6 1.7-1.3s-.8-1.3-1.7-1.3h-28.2c-1 0-1.7.6-1.7 1.3s.8 1.3 1.7 1.3z" fill="#c8b100" stroke-miterlimit="10"/><path d="M171.4 302.3c-3.8 2.2-6.4 4.5-6 5.6.2 1 1.4 1.8 3.2 3 2.7 1.9 4.4 5.3 3.1 6.9 2.3-1.8 3.7-4.6 3.7-7.6 0-3.2-1.6-6.1-4-7.9" fill="#c00" stroke-miterlimit="10"/><path d="M180 335.6h27.5V200.9H180z" fill="#ccc" stroke-miterlimit="10"/><path d="M207.5 257.9c4.8.7 8.3 1.9 10.1 3.4l.2.3c.9 1.7-3.3 5.5-10.3 9.6z" fill="#c00" stroke-miterlimit="10"/><path d="M207.6 230.9c-4.9 0-10.4.3-16.2 1.3-18.3 3-32.2 10.3-31.1 16.3.1.5 6.3 14.4 6.3 14.4 0-.1 0-.3-.1-.4.7 3.1 5.8 5.2 13.4 5.7V255c-2.4 0-4.7-.3-6.8-.5 5.1-2.8 12.6-5.3 21.3-6.8 4.6-.8 9.1-1.2 13.2-1.2 11.7.4 21.9 2.2 27.9 4.7l-.1-16.6c-6-2.2-16.2-3.7-27.8-3.7zm10.1 30.4l.1.3c1.3 2.7-9.5 10.1-24.1 16.6-4.9 2.2-8.9 4-13.7 5.7-10.5 3.9-18 8.2-17.2 10.4l2.6 13.7c-.7-1.9 6.9-6.9 14.6-9.5 4.3-1.5 13.4-4.9 17.7-6.9 13.4-6.4 23.3-13.7 22-16.2 0-.2-1.2-13.5-2-14.1z" fill="#c00" stroke-miterlimit="10"/><path d="M465.1 180.3h-37.7v9.9h4.8c-1 0-1.7.5-1.7 1.1 0 .4.4.8.9 1 1 .3 1.7 1.2 1.7 2.3 0 1-.7 1.9-1.7 2.2-.6.2-1 .7-1 1.2 0 .7.8 1.3 1.7 1.3h28.2c1 0 1.7-.6 1.7-1.3s-.7-1.3-1.6-1.3c.2 0 .4 0 .6.1-1-.3-1.6-1.3-1.6-2.2 0-1 .6-1.9 1.6-2.2h-.5c.9 0 1.6-.5 1.6-1.1s-.8-1.1-1.7-1.1h4.7zm-33.3 16.4c-.1 0 0 0 0 0zm29.2-4.4h.2zm4.6 153c-2.6 0-4.7-2-4.7-4.4 0-.4.1-.7.2-1-.2.1-.5.1-.7.1h-28.2c-.3 0-.5 0-.7-.1.1.3.1.7.1 1 0 2.5-2.1 4.4-4.7 4.4h.1v9.9h38.7zm-33.4-5.4h28.2c1 0 1.7-.6 1.7-1.3s-.8-1.3-1.7-1.3h-28.2c-1 0-1.7.6-1.7 1.3-.1.7.7 1.3 1.7 1.3z" fill="#c8b100" stroke-miterlimit="10"/><path d="M468.6 302.3c3.8 2.2 6.4 4.5 6 5.6-.2 1-1.4 1.8-3.2 3-2.7 1.9-4.4 5.3-3.1 6.9a9.67 9.67 0 01-3.7-7.6c.1-3.2 1.5-6.1 4-7.9" fill="#c00" stroke-miterlimit="10"/><path d="M432.5 335.6H460V200.9h-27.5z" fill="#ccc" stroke-miterlimit="10"/><path d="M448.6 232.2c-5.7-1-11.3-1.3-16.2-1.3-11.7 0-21.8 1.5-28 3.8l-.1 16.6c6-2.5 16.2-4.3 27.9-4.7 4 0 8.5.4 13.2 1.2 8.6 1.4 16.2 3.9 21.3 6.8-2.1.2-4.4.5-6.8.5v13.2c7.6-.5 12.8-2.6 13.4-5.7 0 .1 0 .3-.1.4 0 0 6.2-13.9 6.3-14.4 1.3-6.1-12.6-13.4-30.9-16.4z" fill="#c00" stroke-miterlimit="10"/><path d="M460 283.8c-4.8-1.7-8.8-3.5-13.7-5.7-10.8-4.8-19.5-10.1-22.8-13.6 1.7 1.8 4.9 4.2 9.1 6.6v-13.2c-4.8.7-8.3 1.9-10.1 3.4v.1s-.1.1-.1.2c-.8 2-1.8 13.7-1.8 13.7-1.3 2.5 8.5 9.8 22 16.2 4.3 2.1 13.4 5.4 17.7 6.9 7.7 2.7 15.3 7.7 14.6 9.5l2.5-13.7c.5-2.2-6.9-6.5-17.4-10.4zM318.9 106.1c11.2 0 21.2 1.7 27.8 4.2 3.7 1.7 8.7 2.9 14.2 3.7 4.2.6 8.1.7 11.6.4 4.6-.1 11.3 1.3 18 4.2 5.5 2.5 10.1 5.4 13.2 8.3l-2.6 2.4-.8 6.7-7.3 8.3-3.6 3.1-8.6 6.9-4.4.4-1.3 3.8-55.7-6.5-55.9 6.5-1.3-3.8-4.4-.4-8.6-6.9-3.6-3.1-7.3-8.3-.8-6.7-2.7-2.4c3.1-2.9 7.7-5.9 13.2-8.3 6.7-2.9 13.4-4.3 18-4.2 3.5.3 7.4.2 11.6-.4 5.5-.7 10.5-2 14.2-3.7 6.4-2.5 15.9-4.2 27.1-4.2" fill="#c00" stroke-miterlimit="10"/><path d="M319.8 179.7c-20.8 0-39.4-2.5-52.6-6.5-1-.3-1.5-1.2-1.4-2.1 0-.9.5-1.7 1.4-2 13.3-4 31.9-6.4 52.6-6.5 20.8 0 39.3 2.5 52.6 6.5.9.3 1.4 1.1 1.4 2s-.5 1.8-1.4 2.1c-13.3 4-31.9 6.4-52.6 6.5" fill="#c8b100" stroke-miterlimit="10"/><path d="M319.6 162.6c-21 0-39.9 2.7-53.1 6.8 1.1-.5 1-1.9-.4-5.4-1.7-4.3-4.2-4.1-4.2-4.1 14.7-4.3 35.1-7 57.8-7.1 22.7 0 43.3 2.7 58 7.1 0 0-2.6-.2-4.2 4.1-1.4 3.5-1.5 4.9-.4 5.4-13.3-4.1-32.5-6.8-53.5-6.8" fill="#c8b100" stroke-miterlimit="10"/><path d="M319.7 152.8c-22.7 0-43.2 2.7-57.8 7.1-1 .3-2-.1-2.3-1s.2-2 1.2-2.3c14.7-4.5 35.7-7.4 59-7.4s44.3 2.9 59.1 7.4c1 .3 1.5 1.4 1.2 2.3s-1.4 1.3-2.3 1c-14.8-4.4-35.3-7.1-58.1-7.1m-41.9-31.9l2.3 1.9 3.5-5.8c-3.8-2.3-6.4-6.4-6.4-11 0-.5 0-1 .1-1.5.4-7.3 9.3-13.4 20.7-13.4 5.9 0 11.2 1.6 15 4.2.1-1.1.2-2.1.4-3.1-4.1-2.4-9.5-3.9-15.3-3.9-13.1 0-23.3 7.4-23.8 16.2-.1.5-.1 1-.1 1.5 0 4.7 2.1 8.9 5.5 11.8zm-13.3-24c-9.2 0-17.4 2.5-22.8 6.5.5-.3 1-.7 1.5-1-6.8 4.1-11.4 10.3-11.4 17.4 0 4.1 1.5 8 4.1 11.3l-.3.5 2.4 1.9 4.5-7.3c-2.9-2.4-4.7-5.9-4.7-9.9 0-1.9.4-3.7 1.2-5.4 3-6.5 13.3-11.2 25.6-11.2 2.9 0 5.7.3 8.6.8.5-.9 1.1-1.7 1.8-2.5-3.3-.7-6.8-1.1-10.5-1.1zm-28.3 12.8c0 .1-.1.2-.1.2 0-.1 0-.1.1-.2zm2.4 17l-.2.3.2-.3c-2.5-2.8-4-6.4-4-10.3 0-.6 0-1.2.1-1.8-.1.6-.1 1.2-.1 1.8 0 3.9 1.5 7.5 4 10.3zm-3.1-15.4l-.3.9c.1-.4.2-.7.3-.9zm-.5 1.6c-.1.5-.2 1.1-.3 1.6.1-.5.2-1 .3-1.6zm2.1-4.8c.2-.3.4-.7.7-1-.3.4-.5.7-.7 1zm-.9 1.6c.2-.4.4-.8.7-1.2-.3.3-.5.7-.7 1.2zm1.7-2.8c.6-.8 1.4-1.6 2.2-2.3-.8.7-1.5 1.5-2.2 2.3zm2.5-2.5c.4-.3.7-.6 1.1-.9-.4.3-.8.6-1.1.9z" fill="#c8b100" stroke-miterlimit="10"/><path d="M319.6 86.7c3 0 5.5 2 6.2 4.6.4 2.3.6 5 .7 7.8v.9c0 .3.1.7.1 1 .1 5.9 1 11.2 2.2 14.4l-9.1 8.7-9.2-8.7c1.2-3.2 2.1-8.5 2.2-14.4 0-.3.1-.7.1-1v-.9c0-2.8.3-5.5.7-7.8.4-2.6 3.1-4.5 6.1-4.6" fill="#c8b100" stroke-miterlimit="10"/><path d="M361.3 120.9l-2.3 1.9-3.5-5.8c3.8-2.3 6.4-6.4 6.4-11 0-.5 0-1-.1-1.5-.4-7.3-9.3-13.4-20.7-13.4-5.9 0-11.2 1.6-15 4.2-.1-1.1-.2-2.1-.4-3.1 4.1-2.4 9.5-3.9 15.3-3.9 13 0 23.3 7.4 23.8 16.2 0 .5.1 1 .1 1.5 0 4.7-2.1 8.9-5.5 11.8z" fill="#c8b100" stroke-miterlimit="10"/><path d="M361.2 120.9c4.5-3.3 7.2-7.8 7.2-12.8 0-5.7-3.8-10.8-9.4-14.2 3.5 2.8 5.6 6.5 6 10.5 0 .5.1 1 .1 1.5 0 4.7-2.1 8.9-5.5 11.8zM328.3 79v3.9h-16.9V79h6.3V67.8h-4.1V64h4.1v-3.8h4.1V64h4.1v3.9h-4.1V79z" fill="#c8b100" stroke-miterlimit="10"/><path d="M320.3 379.6c-22.1 0-44.1-5.4-62.5-14.5-13.6-6.7-22.6-20.3-22.6-35.9V273h170v56.4c0 15.5-9 29.1-22.6 35.9-18.5 8.9-40.1 14.3-62.3 14.3" fill="#ccc" stroke-miterlimit="10"/><path d="M325.7 79v3.9h-12.2V79h4.1V67.8h-4.1V64h4.1v-3.8h4.1V64h4.1v3.9h-4.1V79z" fill="#c8b100" stroke-miterlimit="10"/><path d="M328.3 79H327c-.4-2.8-2.5-5-5.3-5.8v-5.4h4.1V64h-4.1v-3.8h-4.1V64h-4.1v3.9h4.1v5.4c-2.9.7-5 3-5.4 5.8h-.8V83h1.4c1.2 2.5 3.8 4.2 6.9 4.2s5.7-1.7 6.9-4.2h1.9v-4z" fill="#c8b100" stroke-miterlimit="10"/><path d="M320 272.9h85.2v-94.3H320z" fill="#ccc" stroke-miterlimit="10"/><path d="M320.1 329.3c0 22.3-18.9 40.3-42.4 40.3s-42.6-18.1-42.6-40.3v-56.4h85z" fill="#c8b100" stroke-miterlimit="10"/><path d="M235.1 272.9H320v-94.3h-84.9zm170.1-.1v56.4c0 22.3-19.1 40.3-42.6 40.3S320 351.4 320 329.2v-56.4z" fill="#c00" stroke-miterlimit="10"/><path d="M300.9 272.4c0-12.5 8.7-22.7 19.4-22.7s19.4 10.2 19.4 22.7-8.7 22.7-19.4 22.7-19.4-10.1-19.4-22.7" fill="#0076bc" stroke-miterlimit="10"/><path d="M220.1 356.5c-2.6 0-4.9-.5-6.6-1.5-1.7-.9-4-1.4-6.5-1.4-2.6 0-4.9.5-6.6 1.4s-4.1 1.4-6.6 1.4c-2.6 0-4.9-.6-6.6-1.5-1.7-.8-3.9-1.3-6.4-1.3-2.6 0-4.8.5-6.5 1.4s-4.1 1.5-6.7 1.5v19.8c2.6 0 5-.6 6.7-1.5s4-1.4 6.5-1.4 4.7.5 6.4 1.3c1.7.9 4 1.5 6.6 1.5s4.9-.6 6.6-1.5 4.1-1.4 6.6-1.4 4.8.5 6.5 1.4 4 1.5 6.6 1.5zm252.5 0c-2.6 0-4.9-.5-6.6-1.5-1.7-.9-4-1.4-6.5-1.4-2.6 0-4.9.5-6.6 1.4s-4.1 1.4-6.6 1.4c-2.6 0-4.9-.6-6.6-1.5-1.7-.8-3.9-1.3-6.4-1.3-2.6 0-4.8.5-6.5 1.4s-4.1 1.5-6.7 1.5v19.8c2.6 0 5-.6 6.7-1.5s4-1.4 6.5-1.4 4.7.5 6.4 1.3c1.7.9 4 1.5 6.6 1.5s4.9-.6 6.6-1.5 4.1-1.4 6.6-1.4 4.8.5 6.5 1.4 4 1.5 6.6 1.5z" fill="#0076bc"/><path d="M407.3 119.8c0-7.1-4.5-13.3-11.3-17.4h-.1c-5.4-3.4-12.9-5.5-21.3-5.5-3.7 0-7.2.4-10.4 1.1.7.8 1.3 1.6 1.8 2.5 2.8-.5 5.7-.8 8.6-.8 12.3 0 22.6 4.8 25.6 11.2.8 1.6 1.2 3.5 1.2 5.4 0 3.9-1.8 7.5-4.7 9.9l4.5 7.3 2.4-1.9-.3-.5c2.5-3.3 4-7.2 4-11.3zM402 108c-.2-.2-.3-.4-.5-.7.1.2.3.5.5.7zm.7 1.3c-.1-.3-.3-.5-.4-.8.2.3.3.5.4.8zm-1.6-2.5c-.2-.3-.5-.5-.7-.8.2.3.5.5.7.8zm-3.8-3.5c-.4-.3-.8-.5-1.2-.8.4.2.8.5 1.2.8zm2.6 2.2c-.3-.3-.6-.6-.9-.8.4.3.7.6.9.8zm-1.3-1.2c-.3-.2-.5-.4-.8-.7.2.3.5.5.8.7zm1.9 22.4l.1.2z" fill="#c8b100" stroke-miterlimit="10"/></g></svg>